# xmcd CD database file
#
# Track frame offsets:
#	150
#	19317
#	42267
#
# Disc length: 816 seconds
#
# Revision: 0
# Processed by: cddbd v1.5PL3 Copyright (c) Steve Scherf et al.
# Submitted via: CDex 1.51
#
DISCID=1e032e03
DTITLE=Iceman - FINAL PRAYER
DYEAR=1997
DGENRE=JPop
TTITLE0=FINAL PRAYER
TTITLE1=BREATHLESS NIGHT SLIDER(LIVE VERSION)
TTITLE2=FINAL PRAYER(ORIGINAL BACKING TRACK)
EXTD=YEAR: 1997
EXTT0=
EXTT1=
EXTT2=
PLAYORDER=
